<?xml version="1.0" encoding="utf-8"?>
<!-- Generator: Adobe Illustrator 24.3.0, SVG Export Plug-In . SVG Version: 6.00 Build 0)  -->
<svg version="1.1" id="Layer_1" xmlns="http://www.w3.org/2000/svg" xmlns:xlink="http://www.w3.org/1999/xlink" x="0px" y="0px"
	 viewBox="0 0 488 413" style="enable-background:new 0 0 488 413;" xml:space="preserve">
<style type="text/css">
	.st0{fill:#D38024;}
	.st1{fill:#693510;}
</style>
<g>
	<g>
		<path class="st0" d="M196.6,67c5.6-16.2,22.9-25.2,27.1-42.2c2.1,7.5,0.3,15.5-2.6,22.6c-4.3,10.7-12.5,20.3-12.4,32.3
			c-0.4,4.7,3.3,8.5,7.2,10.5c8.8,4.6,19,5.1,28.7,5.4c-7.3,4.2-15.7,6.4-24.1,6.4c-8.1-0.2-16.7-3.1-21.6-9.8
			C193.4,85,193.6,75.1,196.6,67z"/>
		<path class="st0" d="M178.6,53.9c7.8-9.2,18.2-16.5,29.7-20.2c-11.2,10.5-21.1,23.9-23.1,39.5c-2.1,14.5,6.4,30.4,20.4,35.5
			c9,2.8,18.7,1.2,27.7-0.7c16.7-3.6,33.5-9.1,50.8-7.1c14.3,1.5,28.5,8.1,37.1,19.9c8.1,10.7,10.5,25.7,5.4,38.2
			c-4.5,11.3-14,19.5-24,25.9c-10.1,6.2-20.9,11.3-32.3,14.7c8-4.9,15-11.3,22-17.5c-5.5-1.4-11.2-0.9-16.8-1.6
			c-29.4-1.2-58.8-1.1-88.1,1.8c-22,2.5-44.4,5.4-65,14.2c17.4-10.3,37.1-15.4,56.9-18.9c21.9-3.7,44.1-5.4,66.2-5.8
			c11.8-0.7,23.6,0.1,35.5,0.5c6.2,0.5,12.3,1.2,18.5,1.2c4.8-6.7,8.8-14.4,9.2-22.9c-0.1-7.2-4.7-14-11-17.3
			c-7.4-4.1-16.2-4.1-24.4-3.1c-17,2.7-33.5,9.2-50.9,9.2c-12.7,0.4-26-2.8-36.1-10.8c-13.1-9.9-20.8-26.5-20.3-42.9
			C166.5,74.1,171,62.7,178.6,53.9z"/>
		<path class="st0" d="M312.7,184.2c3.1-1.9,5.7-4.4,7.8-7.4c4.3,0.1,8.6,0.8,12.8,1.6c17,3.2,34.2,6.8,49.7,14.6
			c5.3,2.9,11.2,6.4,13.5,12.4c1.8,5.4-1.6,10.6-5.3,14.2c-5.1,4.6-11.3,7.8-17.7,10.1c-16,5.6-32.3,10.4-49.2,12.7
			c-29.6,5.2-59.9,6.9-89.9,5.5c-34.6-2.3-69-9.5-101.5-21.7c-5-2-10.4-3.9-13.8-8.2c-2.2-2.7-1.4-7.2,1.7-8.9
			c8.2-5.3,17.9-7.5,27.3-9.8c26.4-5.7,53.4-7.8,80.3-8.5c8,0.1,16-0.9,24-0.1c8,0.2,16,0.4,24,0.8c-20.6,2.3-41.4,4.8-61.1,11.6
			c-6.1,2.4-12.8,5-16.9,10.4c-2.6,3.3-1.4,8,1.1,11c3.7,4.2,9,6.4,14.1,8.3c17.6,5.8,36.4,6.6,54.8,6.1c28.9-1,57.9-3.1,86.1-9.9
			c9-2.4,18.2-5,25.9-10.4c3.2-2.4,7.1-6.6,4.8-10.8c-3.2-5.7-9.7-8.2-15.4-10.7C351.5,190.1,332,187,312.7,184.2z"/>
		<path class="st0" d="M306.6,200.1c15.3-0.3,30.7-0.3,45.8,2.2c4.3,0.9,8.8,1.5,12.5,4.1c1.7,1,1.6,3.8,0,4.9
			c-3.8,3-8.6,4.3-13.1,5.7c-17.8,4.9-36.2,6.8-54.5,8.3c-15.6,1-31.3,1.4-47,0.7c-9.6-0.8-19.5-1.2-28.6-4.7
			c-2.3-0.7-4.6-3.3-2.6-5.6c4.5-4.1,10.7-5.3,16.4-7C258.8,202.9,282.8,200.9,306.6,200.1z"/>
		<path class="st0" d="M124.6,314.6c2.6-6.6,7.6-12.9,14.7-14.7c1.4,0,3.4-1.4,4.3,0.3c3.9,9.9,7.3,20.8,4.9,31.5
			c-2.2,6.3-5.3,12.3-7.9,18.5c-5.1-1.9-10.4-3-15.8-2.9C120.9,336.9,120.7,325,124.6,314.6z"/>
		<path class="st0" d="M86.4,322.7c7.3,1.9,14.4,5.1,20.5,9.6c5.3,3.8,7.8,10.1,10.4,15.8c-6.7,1.6-13.3,4.5-18.2,9.5
			c-7.5-5.1-14.1-12.5-15.8-21.7C82.3,331.3,83.5,326.3,86.4,322.7z"/>
		<path class="st0" d="M187.1,338.4c6.5-5.3,14.8-7.6,22.6-10.2c6.5,8.1,2,19.5-4.2,26.4c-6.6-6.5-16.2-8-25.1-7.3
			C182.4,344.1,184.2,340.8,187.1,338.4z"/>
		<path class="st0" d="M64.4,353.7c6.4-2.8,13.6-1.7,20.4-1.3c1.6,7.9-4.8,14.5-11.6,17.2c-9.4,3.9-21.4,3.9-29.6-2.8
			C51.7,364.6,57.1,357.5,64.4,353.7z"/>
		<path class="st0" d="M185,364.4c6.4-3.5,14-2.6,21-2.1c2.6,0.3,1.9,3.6,1.6,5.4c-2.2,8.2-10.4,12.9-18.2,14.5
			c-7.8,1.9-16.4,0.6-23.3-3.5c-0.2-0.3-0.5-1-0.7-1.3C172.9,374.6,178.4,368.7,185,364.4z"/>
		<path class="st0" d="M122.1,369.3c8-6.8,19.3-5.7,29-4.4c2,7.5-3.4,14.3-9.4,18.1c-11.8,7.1-27.8,7.3-39.3-0.6
			C109.7,379.3,115.8,374.2,122.1,369.3z"/>
	</g>
	<g>
		<g>
			<path class="st1" d="M392.1,230.2c10.1-6.1,21.9-11.3,33.8-8.9c7.1,1.8,14,5.6,18.2,11.8c5.9,8.3,6.5,19.2,4.5,28.9
				c-3.9,14.9-14.5,27.4-27,36c-17.9,12.4-39.2,18.4-60.5,21.5c-5.6,7.3-11.9,14.2-19.4,19.5c-11.7,8.4-25.4,13.4-39.3,16.7
				c-5.3,1.4-10.8,2.1-16.1,3.6c21.8-2.6,44.5-6.4,63.4-18.5c5.8,2.6,11.8,5.7,15.8,10.9c2.2,2.8,1.8,6.8-0.4,9.5
				c-4.5,5.8-11.6,8.6-18.2,11.2c-14.1,5-29,7.7-43.9,9.5c-34.1,3.8-68.6,3.6-102.5-1.5c5.1-3.3,9.6-8.4,9.8-14.7
				c0.3-3.2-1.6-6-2.7-8.8c3.8-4.1,6.6-9,8-14.4c5.5,0,11-0.1,16.5-0.6c-5.3-0.7-10.6-1.3-15.9-2.2c0.2-4.2-0.7-8.3-2.7-12
				c4.6-0.1,9.3-0.3,13.9-0.8c-5.4-0.8-10.9-1.1-16.2-2c-2.3-1.1-3.9-3.3-6.2-4.4c-7.2-3.7-15.7-3.4-23.4-1.5
				c-4.1-0.3-7.9-2-11.8-3.1c-1.5-3-3.2-5.8-5.2-8.4c20.7,3.2,41.6,2.6,62.4,0.6c-3.4-0.5-6.8-0.8-10.2-1
				c-19.9-1.6-39.7-4.7-58.7-10.7c-11.5-3.7-22.8-8.5-32.9-15.1c-1.1-0.7-1.9-1.6-2.7-2.6c23.9,10.6,50.4,13.9,76.4,13
				c5.2-0.3,10.4-0.4,15.5-1.4c-20.6-1.5-41.2-4.8-60.9-11c-12-3.8-23.7-8.9-34.1-16.1c-1.5-1-2.8-2.1-3.9-3.5
				c28.4,13.9,60.9,16.8,92,13.3c-17.7-1.7-35.5-4.2-52.6-9.5c-9.9-3.2-19.9-6.2-29.4-10.6c-5.2-2.6-10.4-5.7-13.5-10.7
				c-2.9-5.5-3.1-12-2.4-18c6.2,4.2,12.5,8.4,19.5,11c34.4,13.2,70.8,21.5,107.6,23.2c39.7,2.1,79.5-3.7,117.7-14.5
				C367,240.3,380,236.3,392.1,230.2z M403,241.5c-2.8,17.5-8.6,34.6-18.2,49.5c12.8-2.4,25.9-6.5,35.7-15.5
				c7.8-7.1,11.9-17.8,11.1-28.3c0-3.5-1.9-7.1-5.3-8.2C418.5,236.7,410.4,239.4,403,241.5z"/>
		</g>
		<path class="st1" d="M147.1,300.2c11.7,2.3,18.8,13.5,21.9,24.2c-9,5.6-17,14.3-18.3,25.2c-0.9,6,1.5,12,5.9,16
			c2.2,1.7-1.1,2.5-2.4,3c-0.3-6.5-4.2-12.4-9.4-16.1c3.8-8.7,10.1-16.9,9.6-26.8C154.2,316.7,150.9,308.2,147.1,300.2z"/>
		<path class="st1" d="M89.3,320.3c8.6-7,21-5.2,30.4-0.8c-1.7,7.2-1.3,14.7-0.2,21.9c-1.6-3.4-3.3-7-6.1-9.6
			C106.8,325.5,97.9,322.6,89.3,320.3z"/>
		<path class="st1" d="M179.4,322.7c9.1-3.2,20.3-3.4,28,3.2c-9.3,2.1-19.3,4.6-26.2,11.7c-3,3.2-4.7,7.3-6.8,11.1
			c-7.1,2.2-13.8,6.9-16.6,14c-4.1-4.5-5.3-11.2-3.3-17C158.2,334.6,168.5,326.6,179.4,322.7z"/>
		<path class="st1" d="M50.2,342.6c7.7-3.3,16.8-3.7,24.6-0.5c3.8,1.6,7,4.4,8.9,8c-7.4-1.3-15.7-2.5-22.6,1.2
			c-6.7,4.2-11.7,10.7-18.9,13.9c-2.6-2.8-4.4-6.6-3.5-10.5C39.8,349,45,345,50.2,342.6z"/>
		<path class="st1" d="M108,354.2c9.8-5,21.9-5.8,32.1-1.2c4.2,1.9,7.7,5.1,9.8,9.1c-8.3-1.4-17.4-2.8-25.4,0.7
			c-8.8,4.6-14.7,13.4-24,17.2c-2.4-2.9-4.5-6.4-4.2-10.3C96.6,362.7,102.1,357.2,108,354.2z"/>
		<path class="st1" d="M171.1,352.5c8.6-3.8,19-4.3,27.5,0c3.4,1.6,6,4.4,7.8,7.7c-7.5-1.3-15.7-2.5-22.8,0.9
			c-7.3,4.2-12.5,11.5-20.5,14.8c-2.4-2.8-4.2-6.4-3.6-10.1C160.5,359.4,165.7,354.9,171.1,352.5z"/>
	</g>
</g>
</svg>
