<?xml version="1.0" encoding="utf-8"?>
<!-- Generator: Adobe Illustrator 24.3.0, SVG Export Plug-In . SVG Version: 6.00 Build 0)  -->
<svg version="1.1" id="Layer_1" xmlns="http://www.w3.org/2000/svg" xmlns:xlink="http://www.w3.org/1999/xlink" x="0px" y="0px"
	 viewBox="0 0 488 413" style="enable-background:new 0 0 488 413;" xml:space="preserve">
<style type="text/css">
	.st0{fill:#D38024;}
	.st1{fill:#F7F7F7;}
</style>
<circle class="st0" cx="244" cy="204.5" r="183.5"/>
<g>
	<path class="st1" d="M213.9,68c2-0.6,4.3-0.2,6.1,1c6.1,3.8,11.2,9.4,13.8,16.2c2.4,6,2.5,12.8,0.7,19c-1.4,5.1-4,9.9-6.9,14.2
		c-2.2,3-4.4,6.1-7.2,8.7c-4,4.3-6.1,10.4-5.4,16.2c0.7,6.6,4.3,12.5,8.4,17.5c1.2,1.3,2.3,3,2.4,4.8c0.3,3.2-1.9,6.3-5,7.2
		c-2.6,0.8-5.5-0.1-7.2-2.2c-6.5-7.5-11.7-16.6-12.5-26.7c-0.9-9.6,2.7-19.3,9.2-26.3c3.6-3.6,6.7-7.8,9-12.3
		c1.9-4,3.2-8.5,2.2-12.9c-0.9-4.3-3.8-8-7.4-10.6c-1.1-0.8-2.3-1.4-3.2-2.3c-1.5-1.6-2.3-4-1.8-6.2C209.5,70.9,211.5,68.8,213.9,68
		z"/>
	<path class="st1" d="M241.9,68.1c2.2-0.8,4.5-0.4,6.4,0.9c6.3,4,11.5,9.8,14.1,16.8c2.2,6.2,2.2,13.1,0.2,19.3
		c-2.3,7.4-6.7,13.9-11.7,19.7c-0.8,0.9-1.7,1.7-2.5,2.6c-3.1,3.5-5,8.1-5.2,12.8c-0.2,6.5,2.7,12.7,6.4,17.9c1,1.4,2.2,2.7,3.2,4.1
		c1.6,2.2,1.7,5.4,0.1,7.6c-1.7,2.7-5.3,4-8.3,2.8c-2-0.7-3.2-2.5-4.5-4c-4.3-5.4-7.9-11.5-9.7-18.2c-1.9-7.3-1.5-15.2,1.4-22.1
		c1.9-4.6,4.8-8.8,8.4-12.3c3.1-3.5,5.8-7.4,7.9-11.6c1.7-3.7,2.7-8,1.7-12.1c-1.2-5-4.9-9.2-9.3-11.7c-2.5-1.5-3.7-4.7-3-7.5
		C238,70.8,239.7,68.9,241.9,68.1z"/>
	<path class="st1" d="M183.1,89.1c2.9-0.7,5.6,0.9,7.9,2.2c5.3,3.2,10.1,7.7,12.2,13.6c1.9,5.1,1.5,10.9-0.6,15.9
		c-2.7,6.3-7.4,11.3-12.4,15.8c-3.3,2.4-6.3,5.8-6.6,10c-0.1,3.2,1.4,6.3,3.4,8.9c1.7,2.2,3.7,4.2,5.7,6.1c2.6,2.6,2.5,7.2-0.2,9.7
		c-1.8,1.8-4.7,2.5-7.1,1.6c-1.9-0.6-3.2-2.2-4.6-3.5c-4.7-4.6-8.7-10.1-10.3-16.5c-1.4-5.3-0.8-11,1.7-16c1.9-3.9,4.7-7.4,8.1-10
		c2.5-1.9,4.7-4.1,6.6-6.6c1.9-2.5,3.9-5.3,3.8-8.7c-0.2-3.4-3-5.8-5.6-7.6c-1.7-1.3-4-1.8-5.5-3.4c-1.3-1.4-1.9-3.3-1.8-5.2
		C177.9,92.4,180.2,89.7,183.1,89.1z"/>
	<path class="st1" d="M273.9,89.4c1.9-0.8,4.1-0.6,5.9,0.4c5,2.4,9.6,5.8,12.8,10.4c3,4.4,4.4,10,3.5,15.2
		c-0.9,5.4-3.7,10.2-7.2,14.3c-2.2,2.6-4.5,5-7.1,7.1c-2.8,2-5.3,4.8-6.1,8.3c-0.6,2.7,0.2,5.6,1.6,7.9c1.7,3,4.2,5.6,6.8,8
		c1.9,1.7,2.8,4.5,2.1,7c-0.6,2.5-2.8,4.5-5.3,5c-2.1,0.5-4.4-0.2-6.1-1.7c-4.8-4.3-9-9.2-11.4-15.1c-2.2-5.5-2.5-11.9-0.3-17.4
		c2-5.3,5.8-9.8,10.4-13.1c3.5-3.1,6.9-6.6,8.5-11c0.8-2,0.6-4.4-0.5-6.2c-1.9-3-4.9-5-8-6.3c-2.5-1.2-4-3.9-3.8-6.6
		C269.7,92.8,271.5,90.4,273.9,89.4z"/>
	<g>
		<path class="st1" d="M142.2,216.1c0-9.2,0-18.5,0-27.8c62.9,0,125.7,0,188.6,0c0,5.8,0,11.7,0,17.4c5.3-4.5,11.9-7.4,18.8-8
			c7.8-0.8,15.8,1.2,22.2,5.6c5.8,3.9,10.4,9.7,12.8,16.2c3.9,10.2,2.4,22.4-4,31.3c-3.4,4.8-8,8.8-13.3,11.3
			c-7,3.3-15.2,4.1-22.7,2.2c-7.6-1.9-14.4-6.5-19-12.8c-4.7,13.5-12.5,25.9-22.6,35.9c-9.1,9-19.9,16.2-31.8,20.8
			c-14.7,5.8-30.9,7.8-46.7,5.8c-14.3-1.8-28.2-6.9-40.2-14.9c-12-8-22.2-18.7-29.4-31.3c-7-12-11.2-25.6-12.4-39.4
			C142.2,224.5,142.2,220.3,142.2,216.1z M349.6,214c-7.9,1.3-14.3,8.5-14.6,16.4c-0.4,6,2.4,12,7.2,15.5c4,3,9.4,4.2,14.4,3.1
			c5-1.1,9.4-4.4,11.9-8.9c2.1-3.8,2.8-8.4,1.7-12.7c-1-4.3-3.7-8.2-7.4-10.7C359,214.2,354.2,213.1,349.6,214z"/>
	</g>
	<path class="st1" d="M140.2,325.4c-0.3-4,3.3-7.8,7.4-7.8c58.9,0,117.7,0,176.7,0c2.4-0.1,4.8,0.9,6.3,2.8c1.7,2.2,2.1,5.3,0.9,7.8
		c-1.2,2.5-3.7,4.3-6.6,4.3c-11.7,0-23.3,0-35,0c1.9,1.8,2.7,4.6,2,7.1c-0.7,3.2-3.8,5.7-7.1,5.6c-32.5,0-65,0-97.5,0
		c-2.7-0.1-5.3-1.8-6.4-4.3c-1.4-2.7-0.6-6.3,1.5-8.4c-10.9,0-21.7,0-32.6,0c-1.6,0-3.3,0.1-4.8-0.5
		C142.2,331.1,140.3,328.3,140.2,325.4z"/>
</g>
</svg>
